PathFileType	4	(X/Y/Z)	E:\Marcel_BSc\Ayumi_22_01_2025\22-01-2025\sumo_dl_0.trc
DataRate	CameraRate	NumFrames	NumMarkers	Units	OrigDataRate	OrigDataStartFrame	OrigNumFrames
200.0	200.0	4	48	mm	200.0	969	2582	
Frame#	Time	RUFIN			FHD			LBHD			RBHD			RBAR			LBAR			RSACR			LSACR			LASI			USACR			LTHI2			C7			CLAV			T10			RSHO			LSHO			LTHI1			LTHI3			LTIB1			LTIB2			LTIB3			LMMAL			LLMAL			LHEE			LMT1			LMT5			LMT3			RTHI1			RTHI2			RTHI3			RTIB1			RTIB3			RTIB2			RLMAL			RMMAL			RHEE			RMT5			RMT1			RMT3			LDUPA			LMUPA			LUUPA			LRAD			RRAD			RUL			RMUPA			RDUPA			RUUPA			
		X1	Y1	Z1	X2	Y2	Z2	X3	Y3	Z3	X4	Y4	Z4	X5	Y5	Z5	X6	Y6	Z6	X7	Y7	Z7	X8	Y8	Z8	X9	Y9	Z9	X10	Y10	Z10	X11	Y11	Z11	X12	Y12	Z12	X13	Y13	Z13	X14	Y14	Z14	X15	Y15	Z15	X16	Y16	Z16	X17	Y17	Z17	X18	Y18	Z18	X19	Y19	Z19	X20	Y20	Z20	X21	Y21	Z21	X22	Y22	Z22	X23	Y23	Z23	X24	Y24	Z24	X25	Y25	Z25	X26	Y26	Z26	X27	Y27	Z27	X28	Y28	Z28	X29	Y29	Z29	X30	Y30	Z30	X31	Y31	Z31	X32	Y32	Z32	X33	Y33	Z33	X34	Y34	Z34	X35	Y35	Z35	X36	Y36	Z36	X37	Y37	Z37	X38	Y38	Z38	X39	Y39	Z39	X40	Y40	Z40	X41	Y41	Z41	X42	Y42	Z42	X43	Y43	Z43	X44	Y44	Z44	X45	Y45	Z45	X46	Y46	Z46	X47	Y47	Z47	X48	Y48	Z48	
969	4.835	176.69456	224.02884	-1176.0099	-152.54073	956.01776	-975.68518	-135.39542	958.51105	-913.2879	-98.108078	958.88763	-1041.9211	211.09285	235.3235	-2070.5195	229.31618	248.97104	150.87161	512.86761	666.80109	-1004.8059	512.69299	674.92651	-932.80695				506.54929	681.09369	-970.14532	335.89178	505.50998	-594.62787	121.26795	939.05219	-952.62805	97.594299	778.71143	-958.36871	370.85605	808.36176	-970.81274	71.645721	800.10352	-1104.6765	97.891388	799.95972	-796.43652	391.64575	496.03632	-630.2901	349.009	456.46478	-598.98804	284.0896	239.46672	-485.13922	326.92609	239.7263	-510.83185	307.11154	179.54245	-493.56384	275.26996	70.097542	-552.59821	331.72339	73.483833	-502.08884	340.2457	34.924667	-557.50702	185.98857	44.178528	-438.80344	252.76231	29.688139	-390.82385	206.45699	41.06353	-410.35056	389.32465	480.29965	-1278.7549	337.27615	492.08704	-1317.6252	346.77002	441.63065	-1311.7968	284.87329	273.39673	-1431.3275	302.29102	212.47975	-1422.9325	325.21082	269.80505	-1401.1691	321.1282	75.129372	-1419.9271	246.5685	70.198677	-1387.0242	327.39886	30.508884	-1364.6311	249.90518	26.777758	-1538.7329	190.30287	34.957947	-1507.2539	212.91281	33.721962	-1529.2781	241.38101	635.24866	-746.84131	192.12268	627.93536	-744.57648	182.7025	689.03809	-743.33563	250.71719	312.82718	-708.75116	168.98352	299.83023	-1175.4658	168.71078	305.59387	-1237.5111	139.90773	706.91333	-1182.3252	154.99792	647.71124	-1196.1758	186.49071	720.38715	-1192.9457
970	4.84	176.50282	224.16982	-1176.0093	-151.04567	959.1488	-976.15509	-134.00453	961.39508	-913.57141	-96.443283	961.36725	-1042.2786	210.98671	235.39259	-2070.4778	228.99716	249.0545	150.88426	513.20197	666.49847	-1004.4709	513.10608	674.60449	-932.47205				506.96088	680.67407	-969.83759	335.50333	505.27786	-594.36487	122.17522	939.50439	-952.50555	98.097984	779.20911	-958.29315	371.37354	808.47693	-970.58044	72.499687	800.47809	-1104.553	98.637848	800.25739	-796.31934	391.28824	495.76996	-629.99921	348.68213	456.34616	-598.75317	283.84341	239.4845	-485.08188	326.68295	239.80157	-510.66064	306.91714	179.58524	-493.47089	275.14056	70.106918	-552.53741	331.69254	73.49147	-502.01749	340.24405	34.927715	-557.50598	185.99789	44.163692	-438.78293	252.54359	29.081928	-390.68701	206.02438	40.796997	-409.79697	389.46317	479.90967	-1278.494	337.52667	491.76993	-1317.4498	346.82529	441.4581	-1311.519	284.84265	273.36417	-1431.2772	302.25424	212.41902	-1422.9175	325.21017	269.74948	-1401.0879	321.11591	75.136459	-1419.9719	246.51367	70.147713	-1387.0829	327.39725	30.523024	-1364.655	249.83073	26.761942	-1538.7498	190.30019	34.972073	-1507.3096	212.93106	33.718266	-1529.33	241.79214	635.42554	-746.72174	192.48778	628.07434	-744.50037	183.06194	689.30719	-743.21783	250.60001	312.89539	-708.69513	168.92636	299.9964	-1175.4268	168.60732	305.91135	-1237.4056	140.5166	707.20874	-1182.1824	155.52316	647.95514	-1196.0361	187.18663	720.46765	-1192.8743
971	4.845	176.3721	224.35751	-1175.9651	-149.6259	962.35638	-976.55597	-132.51244	964.25555	-913.89374	-94.788193	963.88312	-1042.5743	210.85686	235.4664	-2070.446	228.72533	249.1554	150.92793	513.55859	666.22528	-1004.165	513.4328	674.51575	-932.16949				507.31497	680.39954	-969.56934	335.22452	505.0705	-594.14069	123.14827	940.12122	-952.27643	98.641838	779.5943	-958.28979	371.98767	808.32538	-970.48108	73.160446	800.82904	-1104.6333	99.071777	800.59198	-796.29114	390.95435	495.60962	-629.80676	348.40326	456.16443	-598.57111	283.62927	239.48891	-485.03546	326.52863	239.81978	-510.58191	306.80154	179.59546	-493.39636	275.05704	70.109726	-552.47546	331.64227	73.521042	-501.94925	340.24744	34.93874	-557.50409	186.00018	44.163578	-438.77966	252.55885	29.088095	-390.67566	206.0423	40.798489	-409.78632	389.18326	479.81976	-1277.3984	337.62152	491.69073	-1317.1724	346.86569	441.28735	-1311.266	284.83527	273.3367	-1431.2031	302.23923	212.36621	-1422.8661	325.16302	269.68948	-1400.9894	320.98059	75.170181	-1419.2505	246.53085	70.146751	-1387.1594	327.37979	30.523762	-1364.6888	249.87317	26.777645	-1538.7817	190.32195	34.986099	-1507.3505	212.95245	33.754963	-1529.3704	242.16269	635.5365	-746.6452	192.83469	628.2522	-744.4303	183.53018	689.51361	-743.12463	250.53313	312.95438	-708.67468	168.91988	300.2041	-1175.3707	168.14998	305.91284	-1237.7075	141.16466	707.42615	-1182.1141	156.08005	648.18207	-1195.9329	187.7702	720.77167	-1192.7617
972	4.85	176.23582	224.50151	-1175.965	-148.11786	965.45111	-976.99371	-131.24776	967.19928	-914.21216	-93.20047	966.47742	-1042.8905	210.68727	235.56816	-2070.4172	228.54564	249.24992	150.95447	513.89673	666.00507	-1003.9047	513.81818	674.17944	-931.88824				507.70886	680.32678	-969.25098	334.9921	504.8446	-593.96887	123.86165	940.20929	-952.3562	99.19651	779.91327	-958.26392	372.45074	808.51178	-970.28247	73.873314	801.18341	-1104.6875	98.74926	801.70123	-795.84338	390.80716	495.47906	-629.57397	348.14047	455.91943	-598.492	283.52301	239.51019	-484.99457	326.46933	239.84065	-510.54294	306.73792	179.63628	-493.3396	274.95258	70.150658	-552.4422	331.60498	73.529404	-501.86401	340.23572	34.942623	-557.49884	185.97177	44.186344	-438.74466	252.80151	29.686264	-390.78809	206.52158	41.065628	-410.35641	389.57269	479.43573	-1277.9089	337.76904	491.59418	-1316.9349	346.87088	441.16257	-1311.0032	285.08636	273.28171	-1431.0693	302.34753	211.75471	-1422.6069	325.73615	269.76868	-1400.8362	320.94281	75.213341	-1419.3291	246.50075	70.101822	-1387.2029	327.39218	30.541935	-1364.6986	249.85718	26.774384	-1538.7911	190.33147	35.002602	-1507.4064	212.9828	33.779099	-1529.4021	242.49846	635.59235	-746.59796	193.1642	628.45563	-744.37592	183.95717	689.64288	-743.0744	250.45901	313.01129	-708.62726	168.9462	300.36798	-1175.3326	168.26523	306.02884	-1237.714	141.8119	707.64667	-1182.1241	156.58687	648.46161	-1195.8542	188.42577	720.94531	-1192.7056
